<?xml version="1.0" encoding="UTF-8"?>
<svg xmlns="http://www.w3.org/2000/svg" version="1.1" viewBox="0 0 6375 7390.693287" fill="none" stroke-linecap="round" stroke-linejoin="round" style="background:transparent" data-source-layer="SAFETY_ZONE">


<g vector-effect="non-scaling-stroke" stroke-width="1.5" transform="translate(4268.5 3044.24782) scale(1 -1)">
<g data-layer="SAFETY_ZONE" data-entity-type="POLYLINE"><path d="M -2671.460004 3028.24782 L -3525.917793 3028.24782" fill="none" stroke="#ff0000" data-closed="false" /></g>
<g data-layer="SAFETY_ZONE" data-entity-type="ARC"><path d="M 2090.5 400 A 1500 1500 0 0 1 703.794407 1895.71534" fill="none" stroke="#ff0000" /></g>
<g data-layer="SAFETY_ZONE" data-entity-type="LINE"><line x1="2090.5" y1="-400" x2="2090.5" y2="400" stroke="#ff0000" /></g>
<g data-layer="SAFETY_ZONE" data-entity-type="ARC"><path d="M 1800.526288 -1286.474129 A 1500 1500 0 0 1 2090.5 -400" fill="none" stroke="#ff0000" /></g>
<g data-layer="SAFETY_ZONE" data-entity-type="ARC"><path d="M 1304.8212 -2325.045889 A 1499.854849 1499.854849 0 0 1 1800.526288 -1286.474129" fill="none" stroke="#ff0000" /></g>
<g data-layer="SAFETY_ZONE" data-entity-type="LINE"><line x1="1304.8212" y1="-3330.445467" x2="1304.8212" y2="-2325.045889" stroke="#ff0000" /></g>
<g data-layer="SAFETY_ZONE" data-entity-type="ARC"><path d="M 304.8212 -4330.445467 A 1000 1000 0 0 1 1304.8212 -3330.445467" fill="none" stroke="#ff0000" /></g>
<g data-layer="SAFETY_ZONE" data-entity-type="LINE"><line x1="-304.8212" y1="-4330.445467" x2="304.8212" y2="-4330.445467" stroke="#ff0000" /></g>
<g data-layer="SAFETY_ZONE" data-entity-type="ARC"><path d="M -1304.8212 -3330.445467 A 1000 1000 0 0 1 -304.8212 -4330.445467" fill="none" stroke="#ff0000" /></g>
<g data-layer="SAFETY_ZONE" data-entity-type="LINE"><line x1="-1304.8212" y1="-2325.045889" x2="-1304.8212" y2="-3330.445467" stroke="#ff0000" /></g>
<g data-layer="SAFETY_ZONE" data-entity-type="ARC"><path d="M -1625.401528 -1916.2 A 1499.854852 1499.854852 0 0 1 -1304.8212 -2325.045889" fill="none" stroke="#ff0000" /></g>
<g data-layer="SAFETY_ZONE" data-entity-type="LINE"><line x1="-2751.5" y1="-1916.2" x2="-1625.401528" y2="-1916.2" stroke="#ff0000" /></g>
<g data-layer="SAFETY_ZONE" data-entity-type="ARC"><path d="M -4252.5 -415.2 A 1501 1501 0 0 1 -2751.5 -1916.2" fill="none" stroke="#ff0000" /></g>
<g data-layer="SAFETY_ZONE" data-entity-type="LINE"><line x1="-4252.5" y1="-384.8" x2="-4252.5" y2="-415.2" stroke="#ff0000" /></g>
<g data-layer="SAFETY_ZONE" data-entity-type="ARC"><path d="M -2751.5 1116.2 A 1501 1501 0 0 1 -4252.5 -384.8" fill="none" stroke="#ff0000" /></g>
<g data-layer="SAFETY_ZONE" data-entity-type="LINE"><line x1="-1752.061126" y1="1116.2" x2="-2751.5" y2="1116.2" stroke="#ff0000" /></g>
<g data-layer="SAFETY_ZONE" data-entity-type="ARC"><path d="M -421.5 1922.5 A 1501 1501 0 0 1 -1752.061126 1116.2" fill="none" stroke="#ff0000" /></g>
<g data-layer="SAFETY_ZONE" data-entity-type="LINE"><line x1="421.5" y1="1922.5" x2="-421.5" y2="1922.5" stroke="#ff0000" /></g>
<g data-layer="SAFETY_ZONE" data-entity-type="ARC"><path d="M 703.794407 1895.71534 A 1501 1501 0 0 1 421.5 1922.5" fill="none" stroke="#ff0000" /></g>
</g>
</svg>
