<?xml version="1.0" encoding="UTF-8"?>
<svg xmlns="http://www.w3.org/2000/svg" version="1.1" viewBox="0 0 3065.013497 10909.04022" fill="none" stroke-linecap="round" stroke-linejoin="round" style="background:transparent" data-source-layer="REVIEW_REQUIRED">


<g vector-effect="non-scaling-stroke" stroke-width="1.5" transform="translate(1448.203044 5437.165161) scale(1 -1)">
<g data-layer="REVIEW_REQUIRED" data-entity-type="TEXT"><text x="-1432.203044" y="-5151.767073" fill="#ff7f00" font-family="sans-serif" font-size="185">EN Impact Area 21.1 m2 </text></g>
<g data-layer="REVIEW_REQUIRED" data-entity-type="TEXT"><text x="-1289.485939" y="5257.611522" fill="#ff7f00" font-family="sans-serif" font-size="175">LAPPSET</text></g>
<g data-layer="REVIEW_REQUIRED" data-entity-type="TEXT"><text x="-56.854146" y="5255.28219" fill="#ff7f00" font-family="sans-serif" font-size="60">®</text></g>
<g data-layer="REVIEW_REQUIRED" data-entity-type="TEXT"><text x="-1432.203044" y="-5455.875059" fill="#ff7f00" font-family="sans-serif" font-size="185">Falling space 21.1 m2 </text></g>
<g data-layer="REVIEW_REQUIRED" data-entity-type="CIRCLE"><circle cx="1457.839288" cy="5330.558558" r="50.170049" fill="none" stroke="#000000" /></g>
<g data-layer="REVIEW_REQUIRED" data-entity-type="POLYLINE"><path d="M 1370.339288 5293.058558 L 1370.339288 5368.058558 A 50 50 0 0 0 1420.339288 5418.058558 L 1495.339288 5418.058558 A 50 50 0 0 0 1545.339288 5368.058558 L 1545.339288 5293.058558 A 50 50 0 0 0 1495.339288 5243.058558 L 1420.339288 5243.058558 A 50 50 0 0 0 1370.339288 5293.058558 Z" fill="none" stroke="#7ca500" data-closed="true" /></g>
<g data-layer="REVIEW_REQUIRED" data-entity-type="MTEXT"><text x="1600.810453" y="5421.165161" fill="#7ca500" font-family="sans-serif" font-size="2.5">LIME GREEN</text></g>
<g data-layer="REVIEW_REQUIRED" data-entity-type="CIRCLE"><circle cx="1457.839288" cy="5330.558558" r="50.170049" fill="none" stroke="#7f5f3f" /></g>
<g data-layer="REVIEW_REQUIRED" data-entity-type="POLYLINE"><path d="M 1370.339288 5293.058558 L 1370.339288 5368.058558 A 50 50 0 0 0 1420.339288 5418.058558 L 1495.339288 5418.058558 A 50 50 0 0 0 1545.339288 5368.058558 L 1545.339288 5293.058558 A 50 50 0 0 0 1495.339288 5243.058558 L 1420.339288 5243.058558 A 50 50 0 0 0 1370.339288 5293.058558 Z" fill="none" stroke="#a50000" data-closed="true" /></g>
<g data-layer="REVIEW_REQUIRED" data-entity-type="MTEXT"><text x="1600.810453" y="5421.165161" fill="#a50000" font-family="sans-serif" font-size="2.5">APPLE RED</text></g>
<g data-layer="REVIEW_REQUIRED" data-entity-type="CIRCLE"><circle cx="1457.839288" cy="5330.558558" r="50.170049" fill="none" stroke="#7f5f3f" /></g>
<g data-layer="REVIEW_REQUIRED" data-entity-type="MTEXT"><text x="1600.810453" y="5421.165161" fill="#007ca5" font-family="sans-serif" font-size="2.5">TUTTIFRUTTI</text></g>
<g data-layer="REVIEW_REQUIRED" data-entity-type="CIRCLE"><circle cx="1457.839288" cy="5330.558558" r="50.170049" fill="none" stroke="#666666" /></g>
<g data-layer="REVIEW_REQUIRED" data-entity-type="POLYLINE"><path d="M 1370.339288 5293.058558 L 1370.339288 5368.058558 A 50 50 0 0 0 1420.339288 5418.058558 L 1495.339288 5418.058558 A 50 50 0 0 0 1545.339288 5368.058558 L 1545.339288 5293.058558 A 50 50 0 0 0 1495.339288 5243.058558 L 1420.339288 5243.058558 A 50 50 0 0 0 1370.339288 5293.058558 Z" fill="none" stroke="#999999" data-closed="true" /></g>
<g data-layer="REVIEW_REQUIRED" data-entity-type="MTEXT"><text x="1600.810453" y="5421.165161" fill="#999999" font-family="sans-serif" font-size="2.5">LIQUORICE GREY</text></g>
<g data-layer="REVIEW_REQUIRED" data-entity-type="CIRCLE"><circle cx="1457.839288" cy="5330.558558" r="50.170049" fill="none" stroke="#000000" /></g>
<g data-layer="REVIEW_REQUIRED" data-entity-type="POLYLINE"><path d="M 1370.339288 5293.058558 L 1370.339288 5368.058558 A 50 50 0 0 0 1420.339288 5418.058558 L 1495.339288 5418.058558 A 50 50 0 0 0 1545.339288 5368.058558 L 1545.339288 5293.058558 A 50 50 0 0 0 1495.339288 5243.058558 L 1420.339288 5243.058558 A 50 50 0 0 0 1370.339288 5293.058558 Z" fill="none" stroke="#4c004c" data-closed="true" /></g>
<g data-layer="REVIEW_REQUIRED" data-entity-type="MTEXT"><text x="1600.810453" y="5421.165161" fill="#4c004c" font-family="sans-serif" font-size="2.5">CANDY FUCHSIA</text></g>
<g data-layer="REVIEW_REQUIRED" data-entity-type="POLYLINE"><path d="M 1370.339288 5330.558558 L 1545.339288 5330.558558 L 1545.339288 5368.058558 A 50 50 0 0 1 1495.339288 5418.058558 L 1420.339288 5418.058558 A 50 50 0 0 1 1370.339288 5368.058558 L 1370.339288 5330.558558 Z" fill="none" stroke="#007ca5" data-closed="true" /></g>
<g data-layer="REVIEW_REQUIRED" data-entity-type="POLYLINE"><path d="M 1370.339288 5330.558558 L 1370.339288 5293.058558 A 50 50 0 0 1 1420.339288 5243.058558 L 1457.839288 5243.058558 L 1457.839288 5330.558558 L 1370.339288 5330.558558 Z" fill="none" stroke="#ffbf00" data-closed="true" /></g>
<g data-layer="REVIEW_REQUIRED" data-entity-type="POLYLINE"><path d="M 1545.339288 5330.558558 L 1545.339288 5293.058558 A 50 50 0 0 0 1495.339288 5243.058558 L 1457.839288 5243.058558 L 1457.839288 5330.558558 L 1545.339288 5330.558558 Z" fill="none" stroke="#4c004c" data-closed="true" /></g>
</g>
</svg>
